<svg width="13" height="13" viewBox="0 0 13 13" fill="none" xmlns="http://www.w3.org/2000/svg">
<path d="M11.4766 1.01563H10.8672V0H9.85156V1.01563H3.14844V0H2.13281V1.01563H1.52344C0.683414 1.01563 0 1.69904 0 2.53906V11.4766C0 12.3166 0.683414 13 1.52344 13H11.4766C12.3166 13 13 12.3166 13 11.4766V2.53906C13 1.69904 12.3166 1.01563 11.4766 1.01563ZM11.9844 11.4766C11.9844 11.7566 11.7566 11.9844 11.4766 11.9844H1.52344C1.24343 11.9844 1.01563 11.7566 1.01563 11.4766V4.77344H11.9844V11.4766ZM11.9844 3.75781H1.01563V2.53906C1.01563 2.25905 1.24343 2.03125 1.52344 2.03125H2.13281V3.04688H3.14844V2.03125H9.85156V3.04688H10.8672V2.03125H11.4766C11.7566 2.03125 11.9844 2.25905 11.9844 2.53906V3.75781Z" fill="#343434"/>
<path d="M2.94531 5.83984H1.92969V6.85547H2.94531V5.83984Z" fill="#343434"/>
<path d="M4.97656 5.83984H3.96094V6.85547H4.97656V5.83984Z" fill="#343434"/>
<path d="M7.00781 5.83984H5.99219V6.85547H7.00781V5.83984Z" fill="#343434"/>
<path d="M9.03906 5.83984H8.02344V6.85547H9.03906V5.83984Z" fill="#343434"/>
<path d="M11.0703 5.83984H10.0547V6.85547H11.0703V5.83984Z" fill="#343434"/>
<path d="M2.94531 7.87109H1.92969V8.88672H2.94531V7.87109Z" fill="#343434"/>
<path d="M4.97656 7.87109H3.96094V8.88672H4.97656V7.87109Z" fill="#343434"/>
<path d="M7.00781 7.87109H5.99219V8.88672H7.00781V7.87109Z" fill="#343434"/>
<path d="M9.03906 7.87109H8.02344V8.88672H9.03906V7.87109Z" fill="#343434"/>
<path d="M2.94531 9.90234H1.92969V10.918H2.94531V9.90234Z" fill="#343434"/>
<path d="M4.97656 9.90234H3.96094V10.918H4.97656V9.90234Z" fill="#343434"/>
<path d="M7.00781 9.90234H5.99219V10.918H7.00781V9.90234Z" fill="#343434"/>
<path d="M9.03906 9.90234H8.02344V10.918H9.03906V9.90234Z" fill="#343434"/>
<path d="M11.0703 7.87109H10.0547V8.88672H11.0703V7.87109Z" fill="#343434"/>
</svg>
