<svg width="211" height="38" viewBox="0 0 211 38" fill="none" xmlns="http://www.w3.org/2000/svg">
<path fill-rule="evenodd" clip-rule="evenodd" d="M34.6364 22.5942L34.7343 22.5698C36.0703 22.2357 37.0074 21.0352 37.0074 19.6581V18.3412C37.0074 16.964 36.0702 15.7636 34.7342 15.4295L34.6361 15.405C33.6176 15.1498 32.7801 14.4271 32.3786 13.4569C31.977 12.4867 32.0588 11.3836 32.5991 10.4832L32.6403 10.4145C33.3579 9.23161 33.1756 7.71171 32.1985 6.73212L31.2673 5.8009C30.2936 4.82709 28.782 4.64098 27.6011 5.34949L27.5144 5.40151C26.6141 5.94167 25.511 6.02328 24.541 5.62149C23.571 5.2197 22.8488 4.38205 22.5941 3.36348L22.5697 3.2657C22.2356 1.92969 21.0352 0.992493 19.658 0.992493H18.3411C16.9639 0.992493 15.7635 1.92971 15.4294 3.26574L15.4049 3.36378C15.1497 4.38235 14.427 5.21981 13.4568 5.62138C12.4866 6.02295 11.3835 5.94115 10.4831 5.40087L10.4144 5.35967C9.23148 4.64207 7.71159 4.82441 6.732 5.80142L5.80079 6.73262C4.82694 7.70625 4.64075 9.21775 5.34921 10.3986L5.40045 10.484C5.94075 11.3844 6.02256 12.4876 5.62101 13.4578C5.21945 14.428 4.38199 15.1507 3.36342 15.4059L3.2657 15.4304C1.92972 15.7644 0.992432 16.9648 0.992432 18.3419V19.659C0.992432 21.0359 1.92919 22.2362 3.26496 22.5702L3.36204 22.5945C4.38076 22.8491 5.21863 23.5713 5.62075 24.5413C6.02287 25.5113 5.9417 26.6145 5.40193 27.5152L5.35005 27.6016C4.64156 28.7825 4.82763 30.294 5.80135 31.2678L6.73266 32.1991C7.70609 33.1729 9.21737 33.3591 10.3981 32.6508L10.4839 32.5993C11.3843 32.059 12.4874 31.9771 13.4577 32.3787C14.4279 32.7803 15.1506 33.6177 15.4058 34.6363L15.4303 34.7341C15.7643 36.0701 16.9646 37.0075 18.3418 37.0075H19.6589C21.0358 37.0075 22.2361 36.0706 22.5701 34.7348L22.5944 34.6378C22.849 33.6191 23.5711 32.7812 24.5411 32.3791C25.5112 31.977 26.6143 32.0582 27.515 32.598L27.6015 32.6499C28.7824 33.3584 30.2939 33.1723 31.2677 32.1985L32.1991 31.2672C33.1728 30.2938 33.359 28.7825 32.6507 27.6018L32.5992 27.516C32.059 26.6156 31.9772 25.5125 32.3788 24.5422C32.7804 23.572 33.6179 22.8494 34.6364 22.5942Z" fill="#00A5AE"/>
<circle cx="19" cy="19" r="12" fill="#003E48"/>
<path fill-rule="evenodd" clip-rule="evenodd" d="M15.089 19.0014L18.6462 22.5585C19.0391 22.9514 19.0391 23.5885 18.6462 23.9814L17.7569 24.8707C16.8728 25.7548 15.4395 25.7548 14.5554 24.8707L12.7768 23.0921C11.8928 22.208 11.8928 20.7747 12.7768 19.8906L13.6661 19.0014C14.059 18.6084 14.6961 18.6084 15.089 19.0014Z" stroke="#00A5AE" stroke-width="1.5" stroke-linecap="round" stroke-linejoin="round"/>
<path fill-rule="evenodd" clip-rule="evenodd" d="M19.0012 15.089L22.5584 18.6462C22.9513 19.0391 23.5884 19.0391 23.9813 18.6462L24.8706 17.7569C25.7546 16.8728 25.7546 15.4395 24.8706 14.5554L23.092 12.7768C22.2079 11.8928 20.7746 11.8928 19.8905 12.7768L19.0012 13.6661C18.6083 14.059 18.6083 14.6961 19.0012 15.089Z" stroke="#00A5AE" stroke-width="1.5" stroke-linecap="round" stroke-linejoin="round"/>
<path d="M15.4701 19.3825L17.0708 17.7818" stroke="#00A5AE" stroke-width="1.5" stroke-linecap="round" stroke-linejoin="round"/>
<path d="M10.393 27.2522L13.489 24.1562" stroke="#00A5AE" stroke-width="1.5" stroke-linecap="round" stroke-linejoin="round"/>
<path d="M27.7356 9.90946L24.1561 13.489" stroke="#00A5AE" stroke-width="1.5" stroke-linecap="round" stroke-linejoin="round"/>
<path d="M18.2646 22.1772L19.8654 20.5765" stroke="#00A5AE" stroke-width="1.5" stroke-linecap="round" stroke-linejoin="round"/>
<path d="M89.2107 26C88.8198 26 88.507 25.8963 88.2724 25.6889C88.0378 25.4815 87.9205 25.1963 87.9205 24.8333V15.0722C87.9205 14.1648 88.1812 13.4583 88.7025 12.9528C89.2368 12.4472 89.9731 12.1944 90.9115 12.1944H94.2152C96.1961 12.1944 97.7014 12.6028 98.7309 13.4194C99.7605 14.2361 100.275 15.4352 100.275 17.0167C100.275 18.5981 99.7735 19.7972 98.77 20.6139C97.7665 21.4306 96.2874 21.8389 94.3325 21.8389H90.5205V24.8333C90.5205 25.1833 90.3967 25.4685 90.1491 25.6889C89.9145 25.8963 89.6017 26 89.2107 26ZM94.3129 19.8361C96.5415 19.8361 97.6558 18.8963 97.6558 17.0167C97.6558 15.137 96.5415 14.1972 94.3129 14.1972H91.3611C91.1004 14.1972 90.8919 14.2815 90.7355 14.45C90.5922 14.6185 90.5205 14.8519 90.5205 15.15V19.8361H94.3129Z" fill="white"/>
<path d="M102.277 15.0722C102.277 14.1648 102.537 13.4583 103.059 12.9528C103.593 12.4472 104.329 12.1944 105.268 12.1944H108.747C110.689 12.1944 112.155 12.5704 113.146 13.3222C114.136 14.0741 114.631 15.1954 114.631 16.6861C114.631 18.0731 114.214 19.1556 113.38 19.9333C112.559 20.7111 111.451 21.1 110.057 21.1L113.028 24.0361C113.263 24.2694 113.38 24.5352 113.38 24.8333C113.38 25.1444 113.243 25.4167 112.97 25.65C112.683 25.8704 112.403 25.9806 112.129 25.9806C111.751 25.9806 111.406 25.812 111.093 25.475L106.87 21.1778H104.877V24.8333C104.877 25.1963 104.753 25.4815 104.505 25.6889C104.257 25.8963 103.945 26 103.567 26C103.176 26 102.863 25.8963 102.628 25.6889C102.394 25.4815 102.277 25.1963 102.277 24.8333V15.0722ZM108.669 19.175C109.529 19.175 110.2 19.0907 110.682 18.9222C111.165 18.7537 111.504 18.4944 111.699 18.1444C111.908 17.7815 112.012 17.2954 112.012 16.6861C112.012 15.8046 111.738 15.1694 111.191 14.7806C110.656 14.3917 109.816 14.1972 108.669 14.1972H105.717C105.456 14.1972 105.248 14.2815 105.092 14.45C104.948 14.6185 104.877 14.8519 104.877 15.15V19.175H108.669Z" fill="white"/>
<path d="M123.252 26C121.727 26 120.411 25.7083 119.303 25.125C118.208 24.5287 117.374 23.7056 116.801 22.6556C116.227 21.5926 115.941 20.3741 115.941 19C115.941 17.6259 116.227 16.4139 116.801 15.3639C117.374 14.3009 118.208 13.4778 119.303 12.8944C120.411 12.2981 121.727 12 123.252 12C124.777 12 126.087 12.2981 127.181 12.8944C128.289 13.4778 129.13 14.3009 129.703 15.3639C130.276 16.4139 130.563 17.6259 130.563 19C130.563 20.3741 130.276 21.5926 129.703 22.6556C129.13 23.7056 128.289 24.5287 127.181 25.125C126.087 25.7083 124.777 26 123.252 26ZM123.252 23.9583C124.738 23.9583 125.891 23.5176 126.712 22.6361C127.533 21.7417 127.944 20.5296 127.944 19C127.944 17.4574 127.514 16.2454 126.653 15.3639C125.806 14.4824 124.607 14.0417 123.056 14.0417C121.636 14.0417 120.528 14.4954 119.733 15.4028C118.951 16.2972 118.56 17.4963 118.56 19C118.56 20.5296 118.971 21.7417 119.792 22.6361C120.613 23.5176 121.766 23.9583 123.252 23.9583Z" fill="white"/>
<path d="M136.637 26C135.594 26 134.623 25.8056 133.724 25.4167C132.825 25.0148 132.095 24.4574 131.534 23.7444C131.365 23.5241 131.28 23.2972 131.28 23.0639C131.28 22.7528 131.43 22.4676 131.73 22.2083C131.938 22.0398 132.18 21.9556 132.453 21.9556C132.844 21.9556 133.19 22.15 133.489 22.5389C133.815 22.9796 134.252 23.3231 134.799 23.5694C135.359 23.8157 135.972 23.9389 136.637 23.9389C137.432 23.9389 138.018 23.7185 138.396 23.2778C138.774 22.837 138.963 22.163 138.963 21.2556V13.1667C138.963 12.8037 139.08 12.5185 139.315 12.3111C139.549 12.1037 139.862 12 140.253 12C140.644 12 140.957 12.1102 141.192 12.3306C141.439 12.538 141.563 12.8167 141.563 13.1667V21.1778C141.563 22.15 141.361 22.9991 140.957 23.725C140.553 24.4509 139.979 25.0148 139.237 25.4167C138.494 25.8056 137.627 26 136.637 26Z" fill="white"/>
<path d="M146.773 25.8056C145.783 25.8056 145.014 25.5463 144.467 25.0278C143.919 24.5093 143.646 23.7833 143.646 22.85V15.0722C143.646 14.1648 143.906 13.4583 144.428 12.9528C144.962 12.4472 145.698 12.1944 146.637 12.1944H152.716C153.107 12.1944 153.407 12.2852 153.615 12.4667C153.824 12.6352 153.928 12.8815 153.928 13.2056C153.928 13.5167 153.817 13.763 153.596 13.9444C153.387 14.113 153.094 14.1972 152.716 14.1972H147.086C146.826 14.1972 146.617 14.2815 146.461 14.45C146.317 14.6185 146.246 14.8519 146.246 15.15V17.8528H151.231C151.621 17.8528 151.921 17.9435 152.13 18.125C152.338 18.2935 152.443 18.5398 152.443 18.8639C152.443 19.175 152.332 19.4213 152.11 19.6028C151.902 19.7713 151.608 19.8556 151.231 19.8556H146.246V22.85C146.246 23.1481 146.317 23.3815 146.461 23.55C146.617 23.7185 146.826 23.8028 147.086 23.8028H153.146C153.537 23.8028 153.837 23.8935 154.046 24.075C154.254 24.2435 154.358 24.4898 154.358 24.8139C154.358 25.125 154.248 25.3713 154.026 25.5528C153.817 25.7213 153.524 25.8056 153.146 25.8056H146.773Z" fill="white"/>
<path d="M162.461 26C160.988 26 159.711 25.7213 158.629 25.1639C157.547 24.6065 156.72 23.8028 156.146 22.7528C155.573 21.7028 155.286 20.4583 155.286 19.0194C155.286 17.5806 155.573 16.3361 156.146 15.2861C156.72 14.2231 157.541 13.413 158.61 12.8556C159.691 12.2852 160.962 12 162.422 12C163.634 12 164.754 12.2074 165.784 12.6222C166.813 13.037 167.576 13.588 168.071 14.275C168.227 14.4824 168.306 14.6963 168.306 14.9167C168.306 15.2407 168.13 15.5324 167.778 15.7917C167.621 15.9083 167.426 15.9667 167.191 15.9667C166.996 15.9667 166.8 15.9278 166.605 15.85C166.409 15.7593 166.247 15.6361 166.116 15.4806C165.673 14.975 165.158 14.612 164.572 14.3917C163.985 14.1583 163.269 14.0417 162.422 14.0417C161.001 14.0417 159.893 14.4824 159.098 15.3639C158.303 16.2324 157.906 17.4509 157.906 19.0194C157.906 20.575 158.303 21.787 159.098 22.6556C159.906 23.5241 161.027 23.9583 162.461 23.9583C164.103 23.9583 165.412 23.4787 166.39 22.5194C166.794 22.1435 167.165 21.9556 167.504 21.9556C167.739 21.9556 167.954 22.0333 168.149 22.1889C168.449 22.4481 168.599 22.7333 168.599 23.0444C168.599 23.2778 168.514 23.5046 168.345 23.725C167.784 24.438 166.983 24.9954 165.94 25.3972C164.911 25.7991 163.751 26 162.461 26Z" fill="white"/>
<path d="M175.603 26C175.212 26 174.899 25.8963 174.664 25.6889C174.43 25.4815 174.313 25.1963 174.313 24.8333V14.1972H170.54C170.162 14.1972 169.862 14.113 169.64 13.9444C169.432 13.763 169.328 13.5167 169.328 13.2056C169.328 12.8815 169.432 12.6352 169.64 12.4667C169.849 12.2852 170.149 12.1944 170.54 12.1944H180.685C181.076 12.1944 181.376 12.2852 181.585 12.4667C181.793 12.6352 181.897 12.8815 181.897 13.2056C181.897 13.5167 181.787 13.763 181.565 13.9444C181.357 14.113 181.063 14.1972 180.685 14.1972H176.913V24.8333C176.913 25.1833 176.789 25.4685 176.541 25.6889C176.307 25.8963 175.994 26 175.603 26Z" fill="white"/>
<path d="M189.343 26C187.818 26 186.502 25.7083 185.394 25.125C184.3 24.5287 183.466 23.7056 182.892 22.6556C182.319 21.5926 182.032 20.3741 182.032 19C182.032 17.6259 182.319 16.4139 182.892 15.3639C183.466 14.3009 184.3 13.4778 185.394 12.8944C186.502 12.2981 187.818 12 189.343 12C190.868 12 192.178 12.2981 193.272 12.8944C194.38 13.4778 195.221 14.3009 195.794 15.3639C196.368 16.4139 196.654 17.6259 196.654 19C196.654 20.3741 196.368 21.5926 195.794 22.6556C195.221 23.7056 194.38 24.5287 193.272 25.125C192.178 25.7083 190.868 26 189.343 26ZM189.343 23.9583C190.829 23.9583 191.982 23.5176 192.803 22.6361C193.624 21.7417 194.035 20.5296 194.035 19C194.035 17.4574 193.605 16.2454 192.745 15.3639C191.898 14.4824 190.699 14.0417 189.148 14.0417C187.727 14.0417 186.619 14.4954 185.824 15.4028C185.042 16.2972 184.652 17.4963 184.652 19C184.652 20.5296 185.062 21.7417 185.883 22.6361C186.704 23.5176 187.858 23.9583 189.343 23.9583Z" fill="white"/>
<path d="M198.645 15.0722C198.645 14.1648 198.906 13.4583 199.427 12.9528C199.962 12.4472 200.698 12.1944 201.636 12.1944H205.116C207.058 12.1944 208.524 12.5704 209.514 13.3222C210.505 14.0741 211 15.1954 211 16.6861C211 18.0731 210.583 19.1556 209.749 19.9333C208.928 20.7111 207.82 21.1 206.426 21.1L209.397 24.0361C209.632 24.2694 209.749 24.5352 209.749 24.8333C209.749 25.1444 209.612 25.4167 209.338 25.65C209.052 25.8704 208.771 25.9806 208.498 25.9806C208.12 25.9806 207.775 25.812 207.462 25.475L203.239 21.1778H201.245V24.8333C201.245 25.1963 201.121 25.4815 200.874 25.6889C200.626 25.8963 200.313 26 199.936 26C199.545 26 199.232 25.8963 198.997 25.6889C198.763 25.4815 198.645 25.1963 198.645 24.8333V15.0722ZM205.038 19.175C205.898 19.175 206.569 19.0907 207.051 18.9222C207.533 18.7537 207.872 18.4944 208.068 18.1444C208.276 17.7815 208.381 17.2954 208.381 16.6861C208.381 15.8046 208.107 15.1694 207.559 14.7806C207.025 14.3917 206.185 14.1972 205.038 14.1972H202.086C201.825 14.1972 201.617 14.2815 201.46 14.45C201.317 14.6185 201.245 14.8519 201.245 15.15V19.175H205.038Z" fill="white"/>
<path d="M49.2902 25.9806C48.8992 25.9806 48.5865 25.8769 48.3519 25.6694C48.1173 25.462 48 25.1769 48 24.8139V18.0083C48 16.1287 48.5408 14.6574 49.6225 13.5944C50.7042 12.5315 52.2095 12 54.1383 12C55.4024 12 56.4971 12.2398 57.4225 12.7194C58.3478 13.1991 59.0515 13.8926 59.5337 14.8C60.0289 15.7074 60.2766 16.7769 60.2766 18.0083V24.8139C60.2766 25.1769 60.1593 25.462 59.9247 25.6694C59.6901 25.8769 59.3773 25.9806 58.9863 25.9806C58.5954 25.9806 58.2761 25.8769 58.0285 25.6694C57.7939 25.4491 57.6766 25.1639 57.6766 24.8139V21.6444H50.6V24.8139C50.6 25.1639 50.4762 25.4491 50.2285 25.6694C49.994 25.8769 49.6812 25.9806 49.2902 25.9806ZM57.6766 19.6417V17.95C57.6766 16.6537 57.3768 15.6815 56.7773 15.0333C56.1909 14.3722 55.3112 14.0417 54.1383 14.0417C51.7794 14.0417 50.6 15.3444 50.6 17.95V19.6417H57.6766Z" fill="#00A5AE"/>
<path d="M63.6676 26C63.2767 26 62.9639 25.8963 62.7293 25.6889C62.4947 25.4815 62.3774 25.1963 62.3774 24.8333V15.0722C62.3774 14.1648 62.6381 13.4583 63.1594 12.9528C63.6937 12.4472 64.43 12.1944 65.3684 12.1944H68.6721C70.653 12.1944 72.1583 12.6028 73.1878 13.4194C74.2174 14.2361 74.7322 15.4352 74.7322 17.0167C74.7322 18.5981 74.2304 19.7972 73.2269 20.6139C72.2234 21.4306 70.7442 21.8389 68.7894 21.8389H64.9774V24.8333C64.9774 25.1833 64.8536 25.4685 64.606 25.6889C64.3714 25.8963 64.0586 26 63.6676 26ZM68.7698 19.8361C70.9984 19.8361 72.1126 18.8963 72.1126 17.0167C72.1126 15.137 70.9984 14.1972 68.7698 14.1972H65.818C65.5573 14.1972 65.3488 14.2815 65.1924 14.45C65.0491 14.6185 64.9774 14.8519 64.9774 15.15V19.8361H68.7698Z" fill="#00A5AE"/>
<path d="M78.6101 26C78.2192 26 77.9064 25.8963 77.6718 25.6889C77.4372 25.4815 77.3199 25.1963 77.3199 24.8333V13.1667C77.3199 12.8037 77.4372 12.5185 77.6718 12.3111C77.9064 12.1037 78.2192 12 78.6101 12C78.9881 12 79.3008 12.1037 79.5485 12.3111C79.7961 12.5185 79.9199 12.8037 79.9199 13.1667V24.8333C79.9199 25.1963 79.7961 25.4815 79.5485 25.6889C79.3008 25.8963 78.9881 26 78.6101 26Z" fill="#00A5AE"/>
</svg>
